<?xml version="1.0" encoding="UTF-8"?>
<svg id="Layer_1_copy_3" xmlns="http://www.w3.org/2000/svg" xmlns:xlink="http://www.w3.org/1999/xlink" version="1.1" viewBox="0 0 2000 2000">
  <!-- Generator: Adobe Illustrator 29.1.0, SVG Export Plug-In . SVG Version: 2.1.0 Build 142)  -->
  <defs>
    <style>
      .st0 {
        fill: none;
      }

      .st1 {
        fill: #fff;
        opacity: .7;
      }

      .st2 {
        fill: url(#linear-gradient);
        opacity: .6;
      }

      .st3 {
        clip-path: url(#clippath);
      }
    </style>
    <clipPath id="clippath">
      <circle class="st0" cx="1000" cy="1000" r="979"/>
    </clipPath>
    <linearGradient id="linear-gradient" x1="1000" y1="2001" x2="1000" y2="-1" gradientUnits="userSpaceOnUse">
      <stop offset="0" stop-color="#ee7752"/>
      <stop offset=".3" stop-color="#e73c7e"/>
      <stop offset=".7" stop-color="#23a6d5"/>
      <stop offset="1" stop-color="#23d5ab"/>
    </linearGradient>
  </defs>
  <g class="st3">
    <rect class="st1" x="-1" y="-1" width="2002" height="2002"/>
    <rect class="st2" x="-1" y="-1" width="2002" height="2002"/>
    <path d="M909.5,1914.1l-103.2-182.5,269.1-152.2c55.1-31.2,74.5-101.3,43.4-156.4l-420.2-742.9c-88.1-155.7-33.1-354,122.6-442.1l269.1-152.2,103.2,182.5-269.1,152.2c-26.7,15.1-45.9,39.7-54.1,69.2-8.2,29.5-4.4,60.5,10.7,87.2l420.2,742.9c42.7,75.4,53.4,162.9,30.2,246.4-23.2,83.5-77.5,153-152.9,195.7l-269.1,152.2Z"/>
  </g>
</svg>